HIERARCHY
ROOT joint_Root
{
	OFFSET 0.0 0.0 0.0
	CHANNELS 6 Xposition Yposition Zposition Zrotation Xrotation Yrotation 
	JOINT Hips
	{
		OFFSET -0.726466 93.3139 -2.00062
		CHANNELS 6 Xposition Yposition Zposition Zrotation Xrotation Yrotation 
		JOINT Spine
		{
			OFFSET 15.7357 0.0 0.0
			CHANNELS 6 Xposition Yposition Zposition Zrotation Xrotation Yrotation 
			JOINT Chest
			{
				OFFSET 8.98455 -0.406207 0.0
				CHANNELS 6 Xposition Yposition Zposition Zrotation Xrotation Yrotation 
				JOINT Neck
				{
					OFFSET 16.3773 0.0 0.0
					CHANNELS 6 Xposition Yposition Zposition Zrotation Xrotation Yrotation 
					JOINT Head
					{
						OFFSET 6.45672 0.0 0.0
						CHANNELS 6 Xposition Yposition Zposition Zrotation Xrotation Yrotation 
						End Site
						{
							OFFSET 0.0 0.0 0.0
						}
					}
				}
				JOINT Shoulder_L
				{
					OFFSET 12.9942 -0.242716 4.98039
					CHANNELS 6 Xposition Yposition Zposition Zrotation Xrotation Yrotation 
					JOINT UpperArm_L
					{
						OFFSET 5.34809 0.0 0.0
						CHANNELS 6 Xposition Yposition Zposition Zrotation Xrotation Yrotation 
						JOINT LowerArm_L
						{
							OFFSET 24.3286 1.87007e-05 0.0
							CHANNELS 6 Xposition Yposition Zposition Zrotation Xrotation Yrotation 
							JOINT Hand_L
							{
								OFFSET 22.2916 0.0 0.0
								CHANNELS 6 Xposition Yposition Zposition Zrotation Xrotation Yrotation 
								End Site
								{
									OFFSET 0.0 0.0 0.0
								}
							}
						}
					}
				}
				JOINT Shoulder_R
				{
					OFFSET 12.9945 -0.242716 -4.98039
					CHANNELS 6 Xposition Yposition Zposition Zrotation Xrotation Yrotation 
					JOINT UpperArm_R
					{
						OFFSET -5.34813 0.0 0.0
						CHANNELS 6 Xposition Yposition Zposition Zrotation Xrotation Yrotation 
						JOINT LowerArm_R
						{
							OFFSET -24.3289 0.000322201 0.0
							CHANNELS 6 Xposition Yposition Zposition Zrotation Xrotation Yrotation 
							JOINT Hand_R
							{
								OFFSET -22.2915 -0.000108084 0.0
								CHANNELS 6 Xposition Yposition Zposition Zrotation Xrotation Yrotation 
								End Site
								{
									OFFSET 0.0 0.0 0.0
								}
							}
						}
					}
				}
			}
		}
		JOINT UpperLeg_L
		{
			OFFSET -2.19248 -6.46944 0.0
			CHANNELS 6 Xposition Yposition Zposition Zrotation Xrotation Yrotation 
			JOINT LowerLeg_L
			{
				OFFSET 39.0811 0.0 -1.23785e-05
				CHANNELS 6 Xposition Yposition Zposition Zrotation Xrotation Yrotation 
				JOINT Foot_L
				{
					OFFSET 40.9854 0.0 -1.26872e-05
					CHANNELS 6 Xposition Yposition Zposition Zrotation Xrotation Yrotation 
					JOINT Toes_L
					{
						OFFSET 11.7543 0.0 0.0
						CHANNELS 6 Xposition Yposition Zposition Zrotation Xrotation Yrotation 
						End Site
						{
							OFFSET 0.0 0.0 0.0
						}
					}
				}
			}
		}
		JOINT UpperLeg_R
		{
			OFFSET -2.19251 6.46944 0.0
			CHANNELS 6 Xposition Yposition Zposition Zrotation Xrotation Yrotation 
			JOINT LowerLeg_R
			{
				OFFSET -39.0811 -0.00228153 -0.0401928
				CHANNELS 6 Xposition Yposition Zposition Zrotation Xrotation Yrotation 
				JOINT Foot_R
				{
					OFFSET -40.9854 0.0 0.0
					CHANNELS 6 Xposition Yposition Zposition Zrotation Xrotation Yrotation 
					JOINT Toes_R
					{
						OFFSET -11.7543 0.0 0.0
						CHANNELS 6 Xposition Yposition Zposition Zrotation Xrotation Yrotation 
						End Site
						{
							OFFSET 0.0 0.0 0.0
						}
					}
				}
			}
		}
	}
}
MOTION
Frames:	5
Frame Time:	0.0333333
0.000000 0.000000 0.000000 0.000000 0.000000 -0.000000 0.180434 92.830700 -1.179740 88.354900 -8.560150 3.825700 15.735700 0.000005 -0.000001 99.106600 86.664600 -99.518800 8.984550 -0.406207 -0.000000 -1.175380 1.087720 -0.812837 16.377300 -0.000001 -0.000001 6.197850 -2.187780 5.239200 6.456720 -0.000001 -0.000000 11.220600 -1.691540 -4.164410 12.994200 -0.242716 4.980390 -90.291700 0.893489 -71.922100 5.348090 -0.000007 -0.000001 -69.160500 38.136300 -9.678800 24.328600 0.000019 0.000005 3.360990 8.780310 -21.043000 22.291600 -0.000001 0.000005 3.969200 5.487840 -6.051340 12.994500 -0.242716 -4.980390 88.680300 4.170900 -72.424600 -5.348130 -0.000001 -0.000004 -70.466300 -16.115100 -74.995400 -24.328900 0.000322 -0.000009 16.747300 -4.384260 -104.254000 -22.291500 -0.000108 -0.000004 18.265900 5.196410 2.809200 -2.192480 -6.469440 -0.000000 -175.881000 -10.617600 -0.286554 39.081100 -0.000007 -0.000012 -0.075555 0.225703 18.508100 40.985400 -0.000006 -0.000013 -0.890482 -0.279956 -64.165600 11.754300 -0.000000 0.000003 -0.000000 -0.000000 -16.577500 -2.192510 6.469440 -0.000001 178.709000 7.087730 -178.557000 -39.081100 -0.002282 -0.040193 -0.044408 0.180991 14.775800 -40.985400 0.000008 0.000006 0.929509 9.777210 -62.621600 -11.754300 -0.000006 -0.000006 -0.003504 -0.046173 -18.451100
0.000000 0.000000 0.000000 0.000000 0.000000 -0.000000 0.161173 92.824000 -1.193020 88.345500 -8.475800 3.849190 15.735700 0.000005 -0.000001 98.669700 86.610400 -99.056300 8.984550 -0.406207 -0.000000 -1.060720 1.051420 -0.763212 16.377300 -0.000001 -0.000001 6.201250 -2.115010 5.279000 6.456720 -0.000001 -0.000000 11.187600 -1.569910 -4.245670 12.994200 -0.242716 4.980390 -90.300500 0.919018 -71.896000 5.348090 -0.000007 -0.000001 -69.032000 38.125200 -9.732370 24.328600 0.000019 0.000005 3.344760 8.731100 -21.056900 22.291600 -0.000001 0.000005 3.997140 5.487870 -6.052360 12.994500 -0.242716 -4.980390 88.660000 4.219930 -72.365400 -5.348130 -0.000001 -0.000004 -69.318700 -16.205700 -74.299800 -24.328900 0.000322 -0.000009 16.571800 -4.279400 -104.077000 -22.291500 -0.000108 -0.000004 17.719500 5.192420 2.908490 -2.192480 -6.469440 -0.000000 -175.836000 -10.664400 -0.323048 39.081100 -0.000007 -0.000012 -0.076194 0.226517 18.591400 40.985400 -0.000006 -0.000013 -0.884915 -0.143339 -64.184000 11.754300 -0.000000 0.000003 -0.000000 -0.000002 -16.577500 -2.192510 6.469440 -0.000001 178.734000 7.151940 -178.571000 -39.081100 -0.002282 -0.040193 -0.044773 0.181549 14.840200 -40.985400 0.000008 0.000006 0.900946 9.718330 -62.637500 -11.754300 -0.000006 -0.000006 -0.003812 -0.049474 -18.585500
0.000000 0.000000 0.000000 0.000000 0.000000 -0.000000 0.156403 92.836400 -1.219700 88.388100 -8.366770 3.818150 15.735700 0.000005 -0.000001 98.406900 86.586800 -98.785700 8.984550 -0.406207 -0.000000 -1.009580 1.026820 -0.748353 16.377300 -0.000001 -0.000001 6.156540 -2.008060 5.299790 6.456720 -0.000001 -0.000000 11.090000 -1.404160 -4.182350 12.994200 -0.242716 4.980390 -90.310800 0.947418 -71.836600 5.348090 -0.000007 -0.000001 -68.921100 38.112600 -9.731010 24.328600 0.000019 0.000005 3.321180 8.620770 -21.163300 22.291600 -0.000001 0.000005 3.888010 5.488910 -6.093170 12.994500 -0.242716 -4.980390 88.614000 4.340480 -72.271200 -5.348130 -0.000001 -0.000004 -67.699500 -16.229900 -72.817000 -24.328900 0.000322 -0.000009 16.115800 -4.175980 -104.146000 -22.291500 -0.000108 -0.000004 17.013800 5.193450 2.882880 -2.192480 -6.469440 -0.000000 -175.890000 -10.576000 -0.322464 39.081100 -0.000007 -0.000012 -0.076232 0.228350 18.460900 40.985400 -0.000006 -0.000013 -0.887849 -0.149995 -64.098700 11.754300 -0.000000 0.000003 -0.000001 -0.000010 -16.577900 -2.192510 6.469440 -0.000001 178.715000 7.183970 -178.574000 -39.081100 -0.002282 -0.040193 -0.042765 0.174778 14.774700 -40.985400 0.000008 0.000006 0.933021 9.653830 -62.612500 -11.754300 -0.000006 -0.000006 -0.003605 -0.047262 -18.495400
0.000000 0.000000 0.000000 0.000000 0.000000 -0.000000 0.135659 92.838500 -1.239540 88.388700 -8.233920 3.709810 15.735700 0.000005 -0.000001 97.952800 86.570900 -98.313700 8.984550 -0.406207 -0.000000 -0.970600 0.976203 -0.713192 16.377300 -0.000001 -0.000001 5.965350 -1.953780 5.285500 6.456720 -0.000001 -0.000000 10.914600 -1.233520 -4.063300 12.994200 -0.242716 4.980390 -90.318300 0.965744 -71.760200 5.348090 -0.000007 -0.000001 -68.749400 38.220500 -9.853850 24.328600 0.000019 0.000005 3.326240 8.624420 -21.184700 22.291600 -0.000001 0.000005 3.972710 5.489720 -6.124870 12.994500 -0.242716 -4.980390 88.548600 4.525380 -72.196500 -5.348130 -0.000001 -0.000004 -65.473900 -15.987300 -70.415900 -24.328900 0.000322 -0.000009 15.267800 -4.030360 -104.440000 -22.291500 -0.000108 -0.000004 16.701400 5.194080 2.867180 -2.192480 -6.469440 -0.000000 -175.907000 -10.475900 -0.485298 39.081100 -0.000007 -0.000012 -0.075787 0.226789 18.478400 40.985400 -0.000006 -0.000013 -0.888210 -0.100094 -64.070300 11.754300 -0.000000 0.000003 -0.000000 -0.000003 -16.577600 -2.192510 6.469440 -0.000001 178.734000 7.284230 -178.695000 -39.081100 -0.002282 -0.040193 -0.043794 0.178656 14.776700 -40.985400 0.000008 0.000006 0.939416 9.616320 -62.601500 -11.754300 -0.000006 -0.000006 -0.003757 -0.048884 -18.561500
0.000000 0.000000 0.000000 0.000000 0.000000 -0.000000 0.122360 92.853300 -1.250610 88.397100 -8.060890 3.636420 15.735700 0.000005 -0.000001 97.545800 86.543900 -97.876300 8.984550 -0.406207 -0.000000 -0.910875 0.932541 -0.653381 16.377300 -0.000001 -0.000001 5.705470 -1.908780 5.304230 6.456720 -0.000001 -0.000000 10.674400 -1.101700 -4.057680 12.994200 -0.242716 4.980390 -90.345900 1.049920 -71.762900 5.348090 -0.000007 -0.000001 -68.663300 38.150800 -9.853720 24.328600 0.000019 0.000005 3.339880 8.629080 -21.253600 22.291600 -0.000001 0.000005 4.014330 5.488930 -6.093700 12.994500 -0.242716 -4.980390 88.466100 4.766960 -72.139600 -5.348130 -0.000001 -0.000004 -62.486100 -15.248400 -66.986100 -24.328900 0.000322 -0.000009 14.574900 -3.963220 -104.886000 -22.291500 -0.000108 -0.000004 16.741500 5.198090 2.767080 -2.192480 -6.469440 -0.000000 -175.923000 -10.411900 -0.530324 39.081100 -0.000007 -0.000012 -0.074814 0.225433 18.359400 40.985400 -0.000006 -0.000013 -0.878422 -0.006601 -63.989000 11.754300 -0.000000 0.000003 -0.000000 -0.000000 -16.577500 -2.192510 6.469440 -0.000001 178.766000 7.383780 -178.709000 -39.081100 -0.002282 -0.040193 -0.041194 0.169983 14.678200 -40.985400 0.000008 0.000006 1.080920 9.507530 -62.588000 -11.754300 -0.000006 -0.000006 -0.003771 -0.049035 -18.567600
